  <svg xmlns="http://www.w3.org/2000/svg" width="18" height="18" viewBox="0 0 48 48">
                                        <path fill="#EA4335" d="M24 9.5c3.2 0 6 .9 8.4 2.6l6.3-6.3C34.8 2.3 29.7 0 24 0 14.6 0 6.6 5.9 2.6 14.5l7.5 5.8C12.1 14.6 17.5 9.5 24 9.5z" />
                                        <path fill="#34A853" d="M46.1 24.5c0-1.7-.1-2.9-.4-4.1H24v7.8h12.4c-.3 2.2-1.7 5.6-5.1 7.8l7.8 6C43.9 38.1 46.1 32.1 46.1 24.5z" />
                                        <path fill="#4A90E2" d="M9.9 28.2c-.5-1.3-.8-2.6-.8-4 0-1.4.3-2.8.8-4l-7.5-5.8C.9 17.5 0 20.7 0 24c0 3.3.9 6.5 2.6 9.1l7.3-5.2z" />
                                        <path fill="#FBBC05" d="M24 48c6.5 0 12-2.1 16-5.7l-7.8-6c-2.2 1.5-5.2 2.5-8.2 2.5-6.5 0-12.1-4.3-14.1-10.3l-7.5 5.8C6.6 42.1 14.6 48 24 48z" />
                                    </svg>